HIERARCHY
ROOT Hips
{
	OFFSET -0.087744 88.518600 4.106688
	CHANNELS 6 Xposition Yposition Zposition Zrotation Yrotation Xrotation 
	JOINT Spine
	{
		OFFSET 0.000000 8.814246 -2.080107
		CHANNELS 3 Zrotation Yrotation Xrotation
		JOINT Spine1
		{
			OFFSET -0.000000 8.844141 -0.000000
			CHANNELS 3 Zrotation Yrotation Xrotation
			JOINT Spine2
			{
				OFFSET 0.000000 11.682268 0.000000
				CHANNELS 3 Zrotation Yrotation Xrotation
				JOINT Spine3
				{
					OFFSET 0.000000 11.746700 0.000000
					CHANNELS 3 Zrotation Yrotation Xrotation
					JOINT Neck
					{
						OFFSET 0.000000 17.658264 -0.000000
						CHANNELS 3 Zrotation Yrotation Xrotation
						JOINT Neck1
						{
							OFFSET -0.000000 5.101515 -0.000000
							CHANNELS 3 Zrotation Yrotation Xrotation
							JOINT Head
							{
								OFFSET -0.000000 5.101515 -0.000000
								CHANNELS 3 Zrotation Yrotation Xrotation
								JOINT HeadEnd
								{
									OFFSET 0.000000 11.655085 0.000000
									CHANNELS 3 Zrotation Yrotation Xrotation
									End Site
									{
										OFFSET 0.000000 0.000000 0.000000
									}
								}
							}
						}
					}
					JOINT RightShoulder
					{
						OFFSET -2.625389 11.175210 0.000000
						CHANNELS 3 Zrotation Yrotation Xrotation
						JOINT RightArm
						{
							OFFSET 0.000000 10.434715 -0.000000
							CHANNELS 3 Zrotation Yrotation Xrotation
							JOINT RightForeArm
							{
								OFFSET -0.000000 29.628420 0.000000
								CHANNELS 3 Zrotation Yrotation Xrotation
								JOINT RightHand
								{
									OFFSET -0.000000 22.857611 0.000000
									CHANNELS 3 Zrotation Yrotation Xrotation
									JOINT RightHandThumb1
									{
										OFFSET -2.867323 3.959563 2.944291
										CHANNELS 3 Zrotation Yrotation Xrotation
										JOINT RightHandThumb2
										{
											OFFSET -0.000000 3.350399 0.000000
											CHANNELS 3 Zrotation Yrotation Xrotation
											JOINT RightHandThumb3
											{
												OFFSET 0.000000 3.756509 -0.000000
												CHANNELS 3 Zrotation Yrotation Xrotation
												JOINT RightHandThumb4
												{
													OFFSET -0.000000 3.147345 0.000000
													CHANNELS 3 Zrotation Yrotation Xrotation
													End Site
													{
														OFFSET 0.000000 0.000000 0.000000
													}
												}
											}
										}
									}
									JOINT RightHandIndex1
									{
										OFFSET -0.086752 10.030893 2.345280
										CHANNELS 3 Zrotation Yrotation Xrotation
										JOINT RightHandIndex2
										{
											OFFSET 0.000000 4.061090 -0.000000
											CHANNELS 3 Zrotation Yrotation Xrotation
											JOINT RightHandIndex3
											{
												OFFSET 0.000000 3.248873 -0.000000
												CHANNELS 3 Zrotation Yrotation Xrotation
												JOINT RightHandIndex4
												{
													OFFSET 0.000000 2.639709 -0.000000
													CHANNELS 3 Zrotation Yrotation Xrotation
													End Site
													{
														OFFSET 0.000000 0.000000 0.000000
													}
												}
											}
										}
									}
									JOINT RightHandMiddle1
									{
										OFFSET 0.104102 9.502952 0.006768
										CHANNELS 3 Zrotation Yrotation Xrotation
										JOINT RightHandMiddle2
										{
											OFFSET 0.000000 4.568727 -0.000000
											CHANNELS 3 Zrotation Yrotation Xrotation
											JOINT RightHandMiddle3
											{
												OFFSET -0.000000 3.654981 0.000000
												CHANNELS 3 Zrotation Yrotation Xrotation
												JOINT RightHandMiddle4
												{
													OFFSET 0.000000 2.741236 0.000000
													CHANNELS 3 Zrotation Yrotation Xrotation
													End Site
													{
														OFFSET 0.000000 0.000000 0.000000
													}
												}
											}
										}
									}
									JOINT RightHandRing1
									{
										OFFSET 0.086752 8.921708 -2.267442
										CHANNELS 3 Zrotation Yrotation Xrotation
										JOINT RightHandRing2
										{
											OFFSET 0.000000 4.061090 -0.000000
											CHANNELS 3 Zrotation Yrotation Xrotation
											JOINT RightHandRing3
											{
												OFFSET -0.000000 3.654981 0.000000
												CHANNELS 3 Zrotation Yrotation Xrotation
												JOINT RightHandRing4
												{
													OFFSET 0.000000 2.741236 -0.000000
													CHANNELS 3 Zrotation Yrotation Xrotation
													End Site
													{
														OFFSET 0.000000 0.000000 0.000000
													}
												}
											}
										}
									}
									JOINT RightHandPinky1
									{
										OFFSET -0.173504 7.976997 -4.467199
										CHANNELS 3 Zrotation Yrotation Xrotation
										JOINT RightHandPinky2
										{
											OFFSET 0.000000 3.350399 0.000000
											CHANNELS 3 Zrotation Yrotation Xrotation
											JOINT RightHandPinky3
											{
												OFFSET 0.000000 2.842763 -0.000000
												CHANNELS 3 Zrotation Yrotation Xrotation
												JOINT RightHandPinky4
												{
													OFFSET -0.000000 2.639709 -0.000000
													CHANNELS 3 Zrotation Yrotation Xrotation
													End Site
													{
														OFFSET 0.000000 0.000000 0.000000
													}
												}
											}
										}
									}
									JOINT RightForeArmEnd
									{
										OFFSET 0.000000 0.000000 0.000000
										CHANNELS 3 Zrotation Yrotation Xrotation
										End Site
										{
											OFFSET 0.000000 0.000000 0.000000
										}
									}
								}
								JOINT RightArmEnd
								{
									OFFSET 0.000000 0.000000 0.000000
									CHANNELS 3 Zrotation Yrotation Xrotation
									End Site
									{
										OFFSET 0.000000 0.000000 0.000000
									}
								}
							}
						}
					}
					JOINT LeftShoulder
					{
						OFFSET 2.625389 11.175210 -0.000000
						CHANNELS 3 Zrotation Yrotation Xrotation
						JOINT LeftArm
						{
							OFFSET -0.000000 10.813635 0.000000
							CHANNELS 3 Zrotation Yrotation Xrotation
							JOINT LeftForeArm
							{
								OFFSET -0.000000 28.724781 0.000000
								CHANNELS 3 Zrotation Yrotation Xrotation
								JOINT LeftHand
								{
									OFFSET 0.644384 25.716167 -0.328871
									CHANNELS 3 Zrotation Yrotation Xrotation
									JOINT LeftHandThumb1
									{
										OFFSET 2.867323 3.959563 2.944291
										CHANNELS 3 Zrotation Yrotation Xrotation
										JOINT LeftHandThumb2
										{
											OFFSET -0.000000 3.350399 0.000000
											CHANNELS 3 Zrotation Yrotation Xrotation
											JOINT LeftHandThumb3
											{
												OFFSET -0.000000 3.756509 -0.000000
												CHANNELS 3 Zrotation Yrotation Xrotation
												JOINT LeftHandThumb4
												{
													OFFSET 0.000000 3.100000 -0.000000
													CHANNELS 3 Zrotation Yrotation Xrotation
													End Site
													{
														OFFSET 0.000000 0.000000 0.000000
													}
												}
											}
										}
									}
									JOINT LeftHandIndex1
									{
										OFFSET 0.086752 10.030893 2.345280
										CHANNELS 3 Zrotation Yrotation Xrotation
										JOINT LeftHandIndex2
										{
											OFFSET -0.000000 4.061090 0.000000
											CHANNELS 3 Zrotation Yrotation Xrotation
											JOINT LeftHandIndex3
											{
												OFFSET 0.000000 3.248873 0.000000
												CHANNELS 3 Zrotation Yrotation Xrotation
												JOINT LeftHandIndex4
												{
													OFFSET 0.000000 2.639709 -0.000000
													CHANNELS 3 Zrotation Yrotation Xrotation
													End Site
													{
														OFFSET 0.000000 0.000000 0.000000
													}
												}
											}
										}
									}
									JOINT LeftHandMiddle1
									{
										OFFSET -0.104102 9.502952 0.006768
										CHANNELS 3 Zrotation Yrotation Xrotation
										JOINT LeftHandMiddle2
										{
											OFFSET 0.000000 4.568727 -0.000000
											CHANNELS 3 Zrotation Yrotation Xrotation
											JOINT LeftHandMiddle3
											{
												OFFSET 0.000000 3.654981 0.000000
												CHANNELS 3 Zrotation Yrotation Xrotation
												JOINT LeftHandMiddle4
												{
													OFFSET -0.000000 2.741236 -0.000000
													CHANNELS 3 Zrotation Yrotation Xrotation
													End Site
													{
														OFFSET 0.000000 0.000000 0.000000
													}
												}
											}
										}
									}
									JOINT LeftHandRing1
									{
										OFFSET -0.086752 8.921708 -2.267442
										CHANNELS 3 Zrotation Yrotation Xrotation
										JOINT LeftHandRing2
										{
											OFFSET -0.000000 4.061090 -0.000000
											CHANNELS 3 Zrotation Yrotation Xrotation
											JOINT LeftHandRing3
											{
												OFFSET 0.000000 3.654981 0.000000
												CHANNELS 3 Zrotation Yrotation Xrotation
												JOINT LeftHandRing4
												{
													OFFSET -0.000000 2.741236 -0.000000
													CHANNELS 3 Zrotation Yrotation Xrotation
													End Site
													{
														OFFSET 0.000000 0.000000 0.000000
													}
												}
											}
										}
									}
									JOINT LeftHandPinky1
									{
										OFFSET 0.173504 7.976997 -4.467199
										CHANNELS 3 Zrotation Yrotation Xrotation
										JOINT LeftHandPinky2
										{
											OFFSET 0.000000 3.350399 0.000000
											CHANNELS 3 Zrotation Yrotation Xrotation
											JOINT LeftHandPinky3
											{
												OFFSET -0.000000 2.842763 -0.000000
												CHANNELS 3 Zrotation Yrotation Xrotation
												JOINT LeftHandPinky4
												{
													OFFSET -0.000000 2.639709 -0.000000
													CHANNELS 3 Zrotation Yrotation Xrotation
													End Site
													{
														OFFSET 0.000000 0.000000 0.000000
													}
												}
											}
										}
									}
									JOINT LeftForeArmEnd
									{
										OFFSET 0.000000 0.000000 0.000000
										CHANNELS 3 Zrotation Yrotation Xrotation
										End Site
										{
											OFFSET 0.000000 0.000000 0.000000
										}
									}
								}
								JOINT LeftArmEnd
								{
									OFFSET 0.000000 0.000000 0.000000
									CHANNELS 3 Zrotation Yrotation Xrotation
									End Site
									{
										OFFSET 0.000000 0.000000 0.000000
									}
								}
							}
						}
					}
				}
			}
		}
	}
	JOINT RightUpLeg
	{
		OFFSET -11.289943 0.000000 0.000000
		CHANNELS 3 Zrotation Yrotation Xrotation
		JOINT RightLeg
		{
			OFFSET -0.000000 -38.200325 -0.000000
			CHANNELS 3 Zrotation Yrotation Xrotation
			JOINT RightFoot
			{
				OFFSET -0.000000 -39.900856 -0.000000
				CHANNELS 3 Zrotation Yrotation Xrotation
				JOINT RightToeBase
				{
					OFFSET 0.000000 0.000000 15.261641
					CHANNELS 3 Zrotation Yrotation Xrotation
					JOINT RightToeBaseEnd
					{
						OFFSET 0.000000 0.000000 7.370709
						CHANNELS 3 Zrotation Yrotation Xrotation
						End Site
						{
							OFFSET 0.000000 0.000000 0.000000
						}
					}
				}
				JOINT RightLegEnd
				{
					OFFSET 0.000000 0.000000 0.000000
					CHANNELS 3 Zrotation Yrotation Xrotation
					End Site
					{
						OFFSET 0.000000 0.000000 0.000000
					}
				}
			}
			JOINT RightUpLegEnd
			{
				OFFSET 0.000000 0.000000 0.000000
				CHANNELS 3 Zrotation Yrotation Xrotation
				End Site
				{
					OFFSET 0.000000 0.000000 0.000000
				}
			}
		}
	}
	JOINT LeftUpLeg
	{
		OFFSET 11.315661 0.000000 -0.000000
		CHANNELS 3 Zrotation Yrotation Xrotation
		JOINT LeftLeg
		{
			OFFSET 0.000000 -38.200325 0.000000
			CHANNELS 3 Zrotation Yrotation Xrotation
			JOINT LeftFoot
			{
				OFFSET 0.000000 -39.900856 -0.000000
				CHANNELS 3 Zrotation Yrotation Xrotation
				JOINT LeftToeBase
				{
					OFFSET 0.000000 0.000000 15.261641
					CHANNELS 3 Zrotation Yrotation Xrotation
					JOINT LeftToeBaseEnd
					{
						OFFSET -0.000000 0.000000 7.539996
						CHANNELS 3 Zrotation Yrotation Xrotation
						End Site
						{
							OFFSET 0.000000 0.000000 0.000000
						}
					}
				}
				JOINT LeftLegEnd
				{
					OFFSET 0.000000 0.000000 0.000000
					CHANNELS 3 Zrotation Yrotation Xrotation
					End Site
					{
						OFFSET 0.000000 0.000000 0.000000
					}
				}
			}
			JOINT LeftUpLegEnd
			{
				OFFSET 0.000000 0.000000 0.000000
				CHANNELS 3 Zrotation Yrotation Xrotation
				End Site
				{
					OFFSET 0.000000 0.000000 0.000000
				}
			}
		}
	}
}
MOTION
Frames: 4
Frame Time: 0.016667
-0.087744 88.518600 4.106688 0.068919 0.010845 -8.942659 0.442413 -0.081069 6.970063 -1.393128 0.231170 0.120594 0.170773 -1.686916 3.633183 0.138037 -0.360124 1.632820 2.669741 1.360534 7.336633 0.504304 2.812674 -2.138667 -0.849185 -0.825950 -18.014040 0.000000 0.000000 0.000000 93.328857 -0.532019 9.249256 66.106537 -37.119999 4.142115 -0.118903 9.345549 21.275049 6.844851 17.264309 -6.195918 11.236529 -1.888869 39.607235 0.000000 0.000000 -27.360001 0.000000 0.000000 -18.999998 0.000000 0.000000 0.000000 16.490267 0.000000 -10.411167 11.543185 0.000000 0.000000 11.543185 0.000000 0.000000 0.000000 0.000000 0.000000 15.680838 0.000000 -10.611974 10.976586 0.000000 0.000000 10.976586 0.000000 0.000000 0.000000 0.000000 0.000000 17.926441 -0.000000 -9.075776 12.548511 0.000000 0.000000 12.548511 0.000000 0.000000 0.000000 0.000000 0.000000 19.209045 0.000000 -9.362014 13.446335 0.000000 0.000000 13.446335 0.000000 0.000000 0.000000 0.000000 0.000000 0.000000 0.000000 0.000000 0.000000 0.000000 0.000000 -92.264565 0.184447 4.508586 -67.528290 31.026754 -4.429007 -0.724142 -2.563973 37.835682 -1.518325 -21.259672 -14.755241 -10.637670 1.840800 39.870987 0.000000 0.000000 -25.919998 0.000000 0.000000 -18.000004 0.000000 0.000000 0.000000 -13.737988 0.000000 -10.271245 -9.616590 0.000000 0.000000 -9.616590 0.000000 0.000000 0.000000 0.000000 0.000000 -13.566373 0.000000 -10.909574 -9.496462 0.000000 0.000000 -9.496462 0.000000 0.000000 0.000000 0.000000 0.000000 -16.906538 -0.000000 -11.246544 -11.834577 0.000000 0.000000 -11.834577 0.000000 0.000000 0.000000 0.000000 0.000000 -19.165680 -0.000000 -11.938169 -13.415976 0.000000 0.000000 -13.415976 0.000000 0.000000 0.000000 0.000000 0.000000 0.000000 0.000000 0.000000 0.000000 0.000000 0.000000 -1.938379 -12.547268 14.781528 -0.051716 -0.791252 3.432337 -0.790947 -7.985100 17.498075 -0.970069 1.135202 -17.740036 0.000000 0.000000 0.000000 0.000000 0.000000 0.000000 0.000000 0.000000 0.000000 -1.007299 -7.770874 9.427107 0.095226 0.552794 9.721728 1.664590 4.975721 15.629977 0.746320 -0.643483 -19.338871 0.000000 0.000000 0.000000 0.000000 0.000000 0.000000 0.000000 0.000000 0.000000 
-0.045506 88.509460 3.877477 -0.463218 -0.117308 -9.239617 1.574093 -0.220637 6.510141 -1.359809 0.225859 1.576753 0.388427 -1.572232 2.037589 -0.999222 -0.381134 3.301822 3.123652 0.881465 5.200501 1.322626 2.552677 -2.379833 -0.535749 -1.166213 -17.036568 0.000000 0.000000 0.000000 92.809196 -0.524749 9.852448 67.768051 -35.365707 4.083549 0.022482 11.021796 20.991640 6.005453 15.023386 -5.447073 11.168960 -1.871523 39.670189 0.000003 0.000028 -27.335030 0.000018 0.000035 -18.880917 0.000008 0.000000 -0.000029 15.873819 -0.116018 -9.039166 11.212902 -0.015008 -0.120341 11.396805 0.002691 -0.128931 -0.000019 0.000025 -0.000023 15.590344 -0.040241 -9.829434 10.722733 -0.001624 -0.056316 10.769655 0.003734 -0.052424 0.000014 0.000028 0.000001 17.913435 0.027206 -8.903062 12.018559 0.006352 0.096230 12.022515 -0.009016 0.082189 -0.000007 0.000763 -0.000001 18.675518 0.064603 -9.627158 12.662510 -0.036559 0.478457 12.435309 -0.054311 0.394801 -0.000177 -0.000005 0.000014 0.000000 0.000000 0.000000 0.000000 0.000000 0.000000 -90.154358 0.074193 6.543727 -69.050079 28.724655 -4.495779 -0.808866 -3.987405 37.974892 1.203260 -17.824718 -16.928263 -10.240938 1.781180 40.055569 0.000001 0.000023 -24.878914 -0.000022 -0.000022 -17.370750 0.000026 -0.000003 0.000859 -13.138429 -0.053922 -9.128767 -8.902847 -0.045512 -0.114713 -9.275640 -0.033672 -0.074500 0.000019 0.000248 0.000010 -13.086250 -0.019941 -9.884461 -8.804230 -0.017763 -0.027375 -8.691212 -0.006798 -0.016380 0.001071 -0.000045 0.000010 -16.479918 0.061304 -10.101845 -11.032969 0.021462 -0.023684 -10.913627 0.008866 -0.013390 0.000030 0.000009 0.000008 -18.237976 0.155586 -10.732011 -12.470924 0.055438 -0.042331 -12.393916 0.007543 -0.102247 -0.000030 -0.000005 -0.000036 0.000000 0.000000 0.000000 0.000000 0.000000 0.000000 -2.235292 -11.726387 14.762290 -0.078541 -0.786436 4.201681 -1.074961 -9.225221 16.976904 -1.127167 1.107198 -17.033468 0.000000 0.000000 0.000000 0.000000 0.000000 0.000000 0.000000 0.000000 0.000000 0.618869 -5.071052 10.361201 0.107258 0.534321 9.885965 1.384623 2.774302 15.445805 0.555575 -0.495258 -20.098751 0.000000 0.000000 0.000000 0.000000 0.000000 0.000000 0.000000 0.000000 0.000000 
-0.029098 88.491844 3.821193 -0.424805 -0.002022 -9.191323 1.476368 -0.234343 6.564990 -1.386548 0.215355 1.652546 0.438794 -1.699532 1.980302 -0.959324 -0.433291 3.320812 3.260876 0.759381 5.055698 1.326210 2.484335 -2.317566 -0.511086 -1.136763 -16.969414 0.000000 0.000000 0.000000 92.672935 -0.490672 9.975538 67.847946 -35.293941 4.177507 -0.035031 11.099061 21.213875 5.843038 14.421348 -5.521142 11.169033 -1.870619 39.671623 0.000001 0.000041 -27.333889 0.000019 0.000030 -18.888062 0.000013 0.000003 -0.000038 15.795235 -0.112738 -8.874652 11.210693 -0.009228 -0.151510 11.403812 0.008563 -0.153508 -0.000004 0.000036 -0.000017 15.501204 -0.039409 -9.701538 10.706424 -0.001180 -0.065884 10.735003 0.005285 -0.058005 0.000014 0.000009 -0.000006 17.734957 0.023740 -8.843641 11.930253 0.005050 0.100814 11.946582 -0.009933 0.087901 -0.000014 0.000906 -0.000004 18.455109 0.056888 -9.651530 12.544236 -0.038519 0.488750 12.302091 -0.058066 0.405512 -0.000284 0.000002 0.000008 0.000000 0.000000 0.000000 0.000000 0.000000 0.000000 -89.850639 0.021258 6.606121 -69.706711 28.307034 -4.505352 -0.679221 -3.826029 37.879753 1.729717 -17.474911 -17.022667 -10.224105 1.779215 40.051678 0.000004 0.000027 -24.873297 -0.000037 -0.000015 -17.372742 -0.000113 -0.000002 0.000611 -13.049174 -0.047717 -8.916684 -8.916732 -0.044730 -0.116266 -9.302694 -0.031816 -0.078943 0.000026 0.000200 0.000011 -12.972127 -0.017795 -9.754161 -8.814720 -0.017464 -0.030589 -8.697989 -0.006389 -0.019036 0.001309 -0.000044 -0.000037 -16.256605 0.061702 -10.086610 -10.976320 0.022109 -0.019936 -10.862085 0.008755 -0.012190 0.000080 0.000015 0.000008 -17.930416 0.152012 -10.789204 -12.361585 0.052152 -0.031218 -12.269816 0.005066 -0.092628 -0.000057 0.000006 -0.000053 0.000000 0.000000 0.000000 0.000000 0.000000 0.000000 -2.342169 -11.884870 14.583023 -0.079197 -0.789979 4.326176 -0.917701 -9.282224 16.965746 -1.150706 1.123359 -17.037399 0.000000 0.000000 0.000000 0.000000 0.000000 0.000000 0.000000 0.000000 0.000000 0.598274 -5.051540 10.153722 0.107720 0.520135 10.020688 1.393673 2.651072 15.455891 0.544828 -0.500692 -20.056833 0.000000 0.000000 0.000000 0.000000 0.000000 0.000000 0.000000 0.000000 0.000000 
-0.019903 88.464684 3.760525 -0.368582 0.084336 -9.148727 1.386188 -0.238173 6.648133 -1.414156 0.213983 1.745895 0.465288 -1.766937 1.931011 -0.954464 -0.463435 3.356012 3.227753 0.697875 4.845802 1.326820 2.392578 -2.347072 -0.473225 -1.130519 -16.943007 0.000000 0.000000 0.000000 92.540390 -0.463802 10.098583 67.948647 -35.094078 4.251204 -0.061925 11.305600 21.656380 5.749017 13.734092 -5.593644 11.185018 -1.865959 39.671223 0.000002 0.000039 -27.380198 0.000017 0.000031 -18.919771 0.000013 0.000003 -0.000038 15.820008 -0.114829 -8.748561 11.325930 0.004150 -0.194753 11.519043 0.021578 -0.189219 -0.000004 0.000035 -0.000017 15.488605 -0.040706 -9.592550 10.802791 0.002686 -0.080534 10.814043 0.009170 -0.068482 0.000014 -0.000002 -0.000003 17.619270 0.023221 -8.770447 11.928782 -0.000723 0.108890 11.952497 -0.013646 0.096397 -0.000013 0.000961 -0.000003 18.244131 0.058876 -9.629186 12.483150 -0.052869 0.505274 12.227708 -0.071220 0.419970 -0.000373 0.000002 -0.000002 0.000000 0.000000 0.000000 0.000000 0.000000 0.000000 -89.597504 -0.012440 6.648794 -70.098389 27.988375 -4.366309 -0.562891 -3.840162 37.880970 2.245493 -17.018311 -16.851431 -10.191830 1.772568 40.062481 0.000003 0.000027 -24.825291 -0.000043 -0.000016 -17.340954 -0.000295 -0.000005 0.000486 -12.861350 -0.048571 -8.638648 -8.971777 -0.039461 -0.109087 -9.370047 -0.025806 -0.075345 0.000024 0.000185 0.000013 -12.774681 -0.018070 -9.554278 -8.855346 -0.015512 -0.030129 -8.744106 -0.004584 -0.018919 0.001550 -0.000044 -0.000069 -15.959571 0.064483 -10.011353 -10.947304 0.018970 -0.020918 -10.832958 0.006505 -0.012895 0.000084 0.000015 0.000007 -17.606434 0.156151 -10.777093 -12.271006 0.040812 -0.032160 -12.176961 -0.003121 -0.089174 -0.000071 0.000005 -0.000054 0.000000 0.000000 0.000000 0.000000 0.000000 0.000000 -2.450087 -11.910513 14.358708 -0.079354 -0.783222 4.533466 -0.779289 -9.385934 16.978773 -1.168595 1.130257 -17.086046 0.000000 0.000000 0.000000 0.000000 0.000000 0.000000 0.000000 0.000000 0.000000 0.552127 -5.078233 9.916316 0.109343 0.506034 10.298404 1.391702 2.565250 15.416823 0.530159 -0.499237 -20.062443 0.000000 0.000000 0.000000 0.000000 0.000000 0.000000 0.000000 0.000000 0.000000 
